#!OML:ASF F:\VICON\USERDATA\INSTALL\rory3\rory3.ASF
:FULLY-SPECIFIED
:DEGREES
4651
root -2.20799 17.743 13.2517 1450.71 83.4143 1092.59
lowerback 11.5005 0.260474 -4.47187
upperback 1.38551 -0.139098 0.509786
thorax -4.98575 0.0438878 3.07884
lowerneck -17.0136 -3.12299 -9.18512
upperneck 33.1408 -2.78538 5.79048
head 14.4917 -1.27992 3.57689
rclavicle 6.39838e-016 7.25564e-015
rhumerus -37.9559 -11.0535 -80.4389
rradius 36.5565
rwrist 3.70948
rhand -16.6284 8.24565
rfingers 7.12502
rthumb 9.59392 -21.5159
lclavicle 6.39838e-016 7.25564e-015
lhumerus -33.2112 -1.48609 86.4267
lradius 33.9826
lwrist -6.51662
lhand -18.0329 25.0705
lfingers 7.12502
lthumb 8.23855 54.8898
rfemur -22.8058 4.68478 12.3852
rtibia 23.2002
rfoot -6.91928 5.39928
rtoes -18.4165
lfemur 5.92965 -8.66947 -24.656
ltibia 17.8951
lfoot -14.7112 -0.924358
ltoes -2.01969
4652
root -2.10736 17.7355 13.2803 1449.78 83.754 1091.74
lowerback 11.5464 0.287521 -4.27969
upperback 1.40985 -0.0793579 0.51742
thorax -4.99106 0.0697646 2.96897
lowerneck -16.9664 -3.22143 -9.32228
upperneck 33.211 -2.93855 5.952
head 14.5352 -1.33912 3.6459
rclavicle -4.33599e-015 -3.13086e-015
rhumerus -38.047 -11.3765 -80.2892
rradius 36.2818
rwrist 3.94863
rhand -16.3827 8.40896
rfingers 7.12502
rthumb 9.83098 -21.3415
lclavicle -4.33599e-015 -3.13086e-015
lhumerus -33.1196 -1.75426 86.4501
lradius 34.2389
lwrist -6.49428
lhand -17.9794 24.9924
lfingers 7.12502
lthumb 8.29023 54.8097
rfemur -22.4585 4.55125 12.5272
rtibia 22.5929
rfoot -6.9274 6.80282
rtoes -19.6062
lfemur 6.24446 -8.89439 -24.4938
ltibia 18.1686
lfoot -14.732 -0.873927
ltoes -3.60096
4653
root -2.0034 17.7299 13.3083 1449.13 83.9925 1091.13
lowerback 11.4706 0.321715 -4.19579
upperback 1.4817 -0.0134505 0.586961
thorax -4.87876 0.0980775 2.98371
lowerneck -17.002 -3.28779 -9.48756
upperneck 33.2834 -2.97746 5.96735
head 14.5861 -1.37355 3.67832
rclavicle 4.37326e-015 -1.17283e-014
rhumerus -37.9922 -11.5609 -80.1035
rradius 35.9099
rwrist 4.17672
rhand -16.3341 8.78903
rfingers 7.12502
rthumb 9.87785 -20.9593
lclavicle 4.37326e-015 -1.17283e-014
lhumerus -32.8808 -1.72439 86.4988
lradius 34.345
lwrist -6.65141
lhand -17.778 24.7311
lfingers 7.12502
lthumb 8.48458 54.5407
rfemur -22.1766 4.44898 12.6047
rtibia 22.1223
rfoot -6.48993 8.45689
rtoes -19.3194
lfemur 6.50165 -9.07044 -24.4272
ltibia 18.5369
lfoot -14.9009 -0.689744
ltoes -3.95628
4654
root -1.89957 17.7274 13.3387 1448.7 84.2459 1090.69
lowerback 11.3859 0.292367 -4.14372
upperback 1.51087 -0.037972 0.64917
thorax -4.79895 0.0833923 3.02287
lowerneck -17.0353 -3.25713 -9.42534
upperneck 33.3066 -2.889 5.80465
head 14.5913 -1.34931 3.61545
rclavicle -1.78285e-014 4.17448e-015
rhumerus -37.9574 -11.4044 -80.0626
rradius 35.6432
rwrist 4.22238
rhand -16.4878 8.73891
rfingers 7.12502
rthumb 9.72955 -21.0164
lclavicle -1.78285e-014 4.17448e-015
lhumerus -32.742 -1.61331 86.5133
lradius 34.5149
lwrist -6.70344
lhand -17.8284 24.6387
lfingers 7.12502
lthumb 8.43594 54.4503
rfemur -21.9355 4.4999 12.663
rtibia 21.8407
rfoot -5.92583 9.68916
rtoes -19.5023
lfemur 6.69887 -9.39758 -24.3677
ltibia 18.9082
lfoot -14.9368 -0.680637
ltoes -2.88482
4655
root -1.79748 17.7217 13.3694 1449.02 84.523 1090.98
lowerback 11.3606 0.251664 -4.12628
upperback 1.47909 -0.0902345 0.645802
thorax -4.81399 0.0578097 3.01744
lowerneck -16.9906 -3.21513 -9.25509
upperneck 33.3102 -2.83777 5.67322
head 14.5711 -1.32265 3.5395
rclavicle -1.29769e-014 7.05686e-015
rhumerus -37.9651 -11.2577 -80.0995
rradius 35.361
rwrist 4.2624
rhand -16.4189 8.39269
rfingers 7.12502
rthumb 9.79603 -21.3595
lclavicle -1.29769e-014 7.05686e-015
lhumerus -32.7195 -1.43454 86.5038
lradius 34.7695
lwrist -6.24282
lhand -17.7951 24.3662
lfingers 7.12502
lthumb 8.46808 54.1764
rfemur -21.7187 4.3882 12.7583
rtibia 21.7547
rfoot -5.61387 10.6129
rtoes -21.3885
lfemur 6.83457 -9.7793 -24.3542
ltibia 19.3009
lfoot -14.8271 -0.77227
ltoes -2.89449
4656
root -1.69447 17.7288 13.4009 1448.56 84.7955 1090.5
lowerback 11.3541 0.233772 -4.07086
upperback 1.44597 -0.10514 0.705345
thorax -4.84402 0.0508173 3.05108
lowerneck -16.9312 -3.19758 -9.33913
upperneck 33.3556 -2.79205 5.70272
head 14.5765 -1.3083 3.5769
rclavicle 9.14409e-015 1.49089e-015
rhumerus -37.9917 -11.1024 -80.0785
rradius 35.0465
rwrist 4.23944
rhand -16.4156 8.11636
rfingers 7.12502
rthumb 9.7992 -21.6356
lclavicle 9.14409e-015 1.49089e-015
lhumerus -32.7163 -1.32508 86.6331
lradius 34.9872
lwrist -5.18754
lhand -17.8359 24.0383
lfingers 7.12502
lthumb 8.4287 53.8501
rfemur -21.4972 4.67692 12.7931
rtibia 21.8566
rfoot -4.70163 11.2071
rtoes -17.513
lfemur 6.92695 -9.88521 -24.2106
ltibia 19.7681
lfoot -14.7964 -0.789207
ltoes -4.90463
4657
root -1.58859 17.7317 13.4369 1448.19 85.0427 1090.17
lowerback 11.3024 0.277294 -4.08227
upperback 1.45625 -0.0434924 0.758885
thorax -4.80953 0.0809768 3.10406
lowerneck -16.8315 -3.19623 -9.45554
upperneck 33.3905 -2.77827 5.78026
head 14.5726 -1.30462 3.63433
rclavicle -1.17904e-014 -8.54774e-015
rhumerus -38.0029 -11.2262 -79.9441
rradius 34.6477
rwrist 4.38551
rhand -16.431 7.99606
rfingers 7.12502
rthumb 9.78431 -21.7566
lclavicle -1.17904e-014 -8.54774e-015
lhumerus -32.6772 -1.29626 86.7133
lradius 35.1782
lwrist -4.5567
lhand -18.6831 24.6981
lfingers 7.12502
lthumb 7.61104 54.5412
rfemur -21.2161 4.56068 12.9915
rtibia 22.0894
rfoot -3.80197 11.9235
rtoes -13.1581
lfemur 7.0363 -9.98311 -24.0892
ltibia 20.3571
lfoot -14.727 -0.827028
ltoes -6.66579
4658
root -1.48019 17.7307 13.476 1448.46 85.2867 1090.54
lowerback 11.3066 0.374339 -4.14532
upperback 1.46079 0.0773254 0.750684
thorax -4.81729 0.141908 3.1127
lowerneck -16.6513 -3.22914 -9.35396
upperneck 33.4155 -2.84145 5.71125
head 14.5465 -1.32549 3.57815
rclavicle -5.9449e-015 6.75868e-015
rhumerus -38.1176 -11.7799 -79.6966
rradius 34.2451
rwrist 4.76736
rhand -16.4487 7.85537
rfingers 7.12502
rthumb 9.76727 -21.8981
lclavicle -5.9449e-015 6.75868e-015
lhumerus -32.6808 -1.33809 86.6988
lradius 35.3657
lwrist -4.43763
lhand -20.2711 25.5072
lfingers 7.12502
lthumb 6.07812 55.4
rfemur -20.8156 4.38152 13.2086
rtibia 22.4418
rfoot -3.34949 12.372
rtoes -10.044
lfemur 7.18967 -10.2578 -24.0765
ltibia 21.0303
lfoot -14.5437 -0.98897
ltoes -7.02815
4659
root -1.3727 17.7318 13.518 1448.66 85.6211 1090.82
lowerback 11.3298 0.447431 -4.14432
upperback 1.42937 0.169783 0.699529
thorax -4.87093 0.188624 3.04433
lowerneck -16.5466 -3.28308 -9.12936
upperneck 33.5603 -2.94896 5.59613
head 14.593 -1.3551 3.47882
rclavicle -1.95492e-014 9.49197e-015
rhumerus -38.3118 -12.3635 -79.5677
rradius 33.9239
rwrist 4.98859
rhand -16.481 7.78553
rfingers 7.12502
rthumb 9.73612 -21.9694
lclavicle -1.95492e-014 9.49197e-015
lhumerus -32.7216 -1.54601 86.6577
lradius 35.5575
lwrist -4.20388
lhand -21.795 25.6019
lfingers 7.12502
lthumb 4.60677 55.5318
rfemur -20.4025 4.52973 13.4083
rtibia 22.8404
rfoot -3.3626 12.0915
rtoes -9.15984
lfemur 7.20575 -10.5894 -24.0126
ltibia 21.8599
lfoot -14.3571 -1.15881
ltoes -7.2847
4660
root -1.27081 17.7383 13.5589 1448.95 86.0272 1091.11
lowerback 11.345 0.42884 -4.09522
upperback 1.37751 0.146225 0.653657
thorax -4.93177 0.177488 2.97209
lowerneck -16.4854 -3.2441 -8.9738
upperneck 33.6836 -2.89794 5.49417
head 14.6251 -1.32426 3.42334
rclavicle 6.76178e-015 1.41634e-014
rhumerus -38.3805 -12.7092 -79.5721
rradius 33.5052
rwrist 5.0605
rhand -16.5814 7.93811
rfingers 7.12502
rthumb 9.63928 -21.8214
lclavicle 6.76178e-015 1.41634e-014
lhumerus -32.7545 -1.42386 86.464
lradius 35.6929
lwrist -4.23054
lhand -22.9807 25.1207
lfingers 7.12502
lthumb 3.46176 55.0724
rfemur -20.1132 4.58433 13.617
rtibia 23.2165
rfoot -3.62508 11.6198
rtoes -9.71935
lfemur 7.01585 -11.0709 -23.9438
ltibia 22.83
lfoot -14.0485 -1.25136
ltoes -8.166
4661
root -1.16868 17.7554 13.5952 1447.98 86.3928 1090.2
lowerback 11.4247 0.3817 -3.93817
upperback 1.37765 0.101206 0.66902
thorax -4.97204 0.15352 2.90656
lowerneck -16.5081 -3.14287 -8.99578
upperneck 33.7993 -2.72631 5.49389
head 14.667 -1.25123 3.4623
rclavicle -1.99716e-015 6.16232e-015
rhumerus -38.3134 -13.0309 -79.4593
rradius 33.0252
rwrist 5.27852
rhand -16.4839 8.08298
rfingers 7.12502
rthumb 9.73335 -21.6721
lclavicle -1.99716e-015 6.16232e-015
lhumerus -32.7433 -0.82337 86.23
lradius 35.7659
lwrist -4.43738
lhand -23.1084 24.0791
lfingers 7.12502
lthumb 3.33845 54.0327
rfemur -19.7512 4.52702 13.9217
rtibia 23.5295
rfoot -4.02448 10.9323
rtoes -10.8899
lfemur 6.84347 -11.5341 -23.8124
ltibia 23.9158
lfoot -13.6297 -1.48362
ltoes -8.93649
4662
root -1.0631 17.7767 13.631 1444.99 86.6508 1087.34
lowerback 11.5513 0.404043 -3.76572
upperback 1.39391 0.154894 0.782414
thorax -5.02957 0.179089 2.92016
lowerneck -16.5278 -3.09956 -9.11588
upperneck 33.9231 -2.59619 5.4626
head 14.719 -1.213 3.49879
rclavicle 1.07468e-015 1.2424e-015
rhumerus -38.3152 -13.213 -79.2283
rradius 32.6693
rwrist 5.35297
rhand -16.3245 7.9789
rfingers 7.12502
rthumb 9.88708 -21.7689
lclavicle 1.07468e-015 1.2424e-015
lhumerus -32.8005 -0.480712 86.2638
lradius 35.9069
lwrist -4.12885
lhand -22.6556 22.873
lfingers 7.12502
lthumb 3.77568 52.8193
rfemur -19.2673 4.60988 14.3129
rtibia 23.7658
rfoot -4.42083 9.82196
rtoes -12.2119
lfemur 6.71135 -11.8282 -23.5697
ltibia 25.1371
lfoot -13.1682 -1.87745
ltoes -9.2075
4663
root -0.956892 17.7983 13.6654 1439.76 86.8229 1082.2
lowerback 11.6075 0.478477 -3.53295
upperback 1.39826 0.29067 0.947249
thorax -5.0667 0.24388 2.94045
lowerneck -16.4848 -3.11464 -9.22266
upperneck 33.9786 -2.53428 5.346
head 14.7311 -1.21424 3.48196
rclavicle -2.99419e-015 -8.94531e-016
rhumerus -38.3586 -13.3876 -78.9695
rradius 32.3832
rwrist 5.3987
rhand -16.3698 7.70995
rfingers 7.12502
rthumb 9.8434 -22.04
lclavicle -2.99419e-015 -8.94531e-016
lhumerus -32.835 -0.417524 86.4326
lradius 36.0177
lwrist -3.58725
lhand -22.3671 22.0074
lfingers 7.12502
lthumb 4.05426 51.9486
rfemur -18.8274 4.65733 14.8138
rtibia 23.8958
rfoot -4.64017 8.93214
rtoes -13.29
lfemur 6.43224 -12.1183 -23.2534
ltibia 26.5206
lfoot -12.5234 -2.17804
ltoes -8.41672
4664
root -0.853875 17.8184 13.6966 1434.58 86.9761 1077.09
lowerback 11.6733 0.53526 -3.23884
upperback 1.40748 0.406905 1.03177
thorax -5.10133 0.297023 2.8443
lowerneck -16.4098 -3.12146 -9.27203
upperneck 33.9599 -2.50422 5.27922
head 14.7034 -1.21512 3.46717
rclavicle -3.24267e-015 -8.94531e-016
rhumerus -38.3593 -13.8617 -78.7044
rradius 31.9659
rwrist 5.61524
rhand -16.3392 7.9674
rfingers 7.12502
rthumb 9.87288 -21.7811
lclavicle -3.24267e-015 -8.94531e-016
lhumerus -32.8667 -0.230303 86.4151
lradius 36.089
lwrist -3.29185
lhand -21.9254 20.6328
lfingers 7.12502
lthumb 4.4808 50.5654
rfemur -18.3912 4.58115 15.2956
rtibia 23.9334
rfoot -4.7062 8.62917
rtoes -13.5491
lfemur 5.98702 -12.292 -22.9714
ltibia 28.0931
lfoot -11.832 -2.38037
ltoes -8.87071
